Plot: Roger Cobb (William Katt) is killed in a car accident. His family must move into the house that has haunted him for several years. Soon the family begins to experience scary and unexplained phenomena.


Video
ID : 0
Format : MPEG-4 Visual
Format profile : Advanced Simple@L5
Format settings, BVOP : Yes
Format settings, QPel : No
Format settings, GMC : No warppoints
Format settings, Matrix : Custom
Codec ID : XVID
Codec ID/Hint : XviD
Duration : 1h 29mn
Bit rate : 956 Kbps
Width : 720 pixels
Height : 368 pixels
Display aspect ratio
: 1.957
Frame rate : 25.000 fps
Color space : YUV
Chroma subsampling : 4:2:0
Bit depth : 8 bits
Scan type : Progressive
Bits/(Pixel*Frame) : 0.144
Stream size : 615 MiB (88%)
Writing library : XviD 1.2.1 (UTC 2008-12-04)

Audio
ID : 1
Format : MPEG Audio
Format version : Version 1
Format profile : Layer 3
Mode : Joint stereo
Mode extension : MS Stereo
Codec ID : 55
Codec ID/Hint : MP3
Duration : 1h 29mn
Bit rate mode : Variable
Bit rate : 120 Kbps
Nominal bit rate : 128 Kbps
Channel(s) : 2 channels
Sampling rate : 48.0 KHz
Video delay : 216ms
Stream size : 77.1 MiB (11%)
Alignment : Split accross interleaves
Interleave, duration : 24 ms (0.60 video frame)
Interleave, preload duration : 1004 ms
Writing library : LAME3.98r
Encoding settings : -m j -V 4 -q 2 -lowpass 17 --abr 128
Language : English
 
http://www.imdb.com/title/tt0104449/